<svg width="318" height="309" viewBox="0 0 318 309" fill="none" xmlns="http://www.w3.org/2000/svg">
<g clip-path="url(#clip0_228_302)">
<path d="M148.282 203.107L119.926 203.107L119.926 231.469L148.282 231.469L148.282 203.107Z" stroke="#DBDBDB" stroke-width="4" stroke-miterlimit="10"/>
<path d="M177.713 169.315L250.752 169.315C255.322 169.315 259.019 172.973 259.019 177.495L259.019 197.347L149.132 197.347" stroke="#DBDBDB" stroke-width="4" stroke-miterlimit="10"/>
<path d="M149.132 197.347L149.132 87.4604L177.165 87.4604L177.165 168.884" stroke="#DBDBDB" stroke-width="4" stroke-miterlimit="10"/>
<path d="M149.132 87.4604L177.268 87.4604L177.268 169.018C177.268 169.018 175.199 197.347 207.44 197.347L149.132 197.347L149.132 87.4604V87.4604Z" stroke="#DBDBDB" stroke-width="4" stroke-miterlimit="10"/>
<path d="M9.09619 258.578L9.09619 237.976L119.875 237.976L119.875 266.541L17.0573 266.541C12.6532 266.541 9.09619 262.966 9.09619 258.578V258.578Z" stroke="#DBDBDB" stroke-width="4" stroke-miterlimit="10"/>
<path d="M119.875 237.976L119.875 348.78L99.6503 348.78C95.043 348.78 91.3164 345.053 91.3164 340.444L91.3164 263.525" stroke="#DBDBDB" stroke-width="4" stroke-miterlimit="10"/>
<path d="M119.875 348.78L91.689 348.78C91.4688 348.78 91.2994 348.611 91.2994 348.39L91.2994 266.541C91.2994 266.541 93.3999 237.976 60.6743 237.976L119.858 237.976L119.858 348.78L119.875 348.78Z" stroke="#DBDBDB" stroke-width="4" stroke-miterlimit="10"/>
<path d="M323.58 11.8599L295.225 11.8599L295.225 40.2218L323.58 40.2218L323.58 11.8599Z" stroke="#DBDBDB" stroke-width="4" stroke-miterlimit="10"/>
<path d="M266.92 75.293L192.728 75.293C188.121 75.293 184.394 71.5657 184.394 66.9573L184.394 46.7275L295.173 46.7275" stroke="#DBDBDB" stroke-width="4" stroke-miterlimit="10"/>
<path d="M295.157 46.7275L295.157 157.532L266.75 157.532C266.75 157.532 266.598 157.465 266.598 157.38L266.598 75.293" stroke="#DBDBDB" stroke-width="4" stroke-miterlimit="10"/>
<path d="M295.157 157.532L266.971 157.532C266.75 157.532 266.581 157.363 266.581 157.143L266.581 75.293C266.581 75.293 268.681 46.7275 235.956 46.7275L295.14 46.7275L295.14 157.532L295.157 157.532Z" stroke="#DBDBDB" stroke-width="4" stroke-miterlimit="10"/>
<path d="M133.07 354.135L161.629 354.135L161.629 243.33L133.07 243.33L133.07 354.135Z" stroke="#DBDBDB" stroke-width="4" stroke-miterlimit="10"/>
<path d="M133.07 243.33L161.629 243.33L161.629 325.569C161.629 325.569 159.528 354.134 192.254 354.134L133.07 354.134L133.07 243.33V243.33Z" stroke="#DBDBDB" stroke-width="4" stroke-miterlimit="10"/>
<path d="M336.39 161.951L308.067 161.951L308.067 190.237L336.39 190.237L336.39 161.951Z" stroke="#DBDBDB" stroke-width="4" stroke-miterlimit="10"/>
<path d="M280.201 225.215L205.672 225.215C201.07 225.215 197.348 221.497 197.348 216.901L197.348 196.726L307.999 196.726" stroke="#DBDBDB" stroke-width="4" stroke-miterlimit="10"/>
<path d="M307.999 196.726L307.999 307.235L287.797 307.235C283.195 307.235 279.473 303.517 279.473 298.921L279.473 223.204" stroke="#DBDBDB" stroke-width="4" stroke-miterlimit="10"/>
<path d="M307.999 307.235L279.846 307.235C279.626 307.235 279.456 307.066 279.456 306.846L279.456 225.215C279.456 225.215 281.555 196.726 248.867 196.726L307.982 196.726L307.982 307.235L307.999 307.235Z" stroke="#DBDBDB" stroke-width="4" stroke-miterlimit="10"/>
</g>
<defs>
<clipPath id="clip0_228_302">
<rect width="308.356" height="318.447" fill="white" transform="translate(318.447) rotate(90)"/>
</clipPath>
</defs>
</svg>
