<svg width="319" height="309" viewBox="0 0 319 309" fill="none" xmlns="http://www.w3.org/2000/svg">
<g clip-path="url(#clip0_228_365)">
<path d="M170.166 105.248L198.521 105.248L198.521 76.8863L170.166 76.8863L170.166 105.248Z" stroke="#DBDBDB" stroke-width="4" stroke-miterlimit="10"/>
<path d="M140.734 139.041L67.695 139.041C63.1248 139.041 59.4282 135.383 59.4282 130.86L59.4282 111.008L169.315 111.008" stroke="#DBDBDB" stroke-width="4" stroke-miterlimit="10"/>
<path d="M169.315 111.008L169.315 220.895L141.283 220.895L141.283 139.471" stroke="#DBDBDB" stroke-width="4" stroke-miterlimit="10"/>
<path d="M169.315 220.895L141.179 220.895L141.179 139.337C141.179 139.337 143.248 111.008 111.008 111.008L169.315 111.008L169.315 220.895V220.895Z" stroke="#DBDBDB" stroke-width="4" stroke-miterlimit="10"/>
<path d="M309.351 49.7778L309.351 70.3799L198.572 70.3799L198.572 41.8146L301.39 41.8146C305.794 41.8146 309.351 45.3897 309.351 49.7778V49.7778Z" stroke="#DBDBDB" stroke-width="4" stroke-miterlimit="10"/>
<path d="M198.572 70.3799L198.572 -40.4246L218.797 -40.4246C223.404 -40.4246 227.131 -36.6974 227.131 -32.089L227.131 44.8303" stroke="#DBDBDB" stroke-width="4" stroke-miterlimit="10"/>
<path d="M198.572 -40.4246L226.758 -40.4246C226.978 -40.4246 227.148 -40.2552 227.148 -40.035L227.148 41.8145C227.148 41.8145 225.047 70.3799 257.773 70.3799L198.589 70.3799L198.589 -40.4246L198.572 -40.4246Z" stroke="#DBDBDB" stroke-width="4" stroke-miterlimit="10"/>
<path d="M-5.13268 296.496L23.2227 296.496L23.2227 268.134L-5.13268 268.134L-5.13268 296.496Z" stroke="#DBDBDB" stroke-width="4" stroke-miterlimit="10"/>
<path d="M51.5274 233.063L125.719 233.063C130.326 233.063 134.053 236.79 134.053 241.398L134.053 261.628L23.2738 261.628" stroke="#DBDBDB" stroke-width="4" stroke-miterlimit="10"/>
<path d="M23.2906 261.628L23.2906 150.823L51.6968 150.823C51.6968 150.823 51.8492 150.891 51.8492 150.976L51.8492 233.063" stroke="#DBDBDB" stroke-width="4" stroke-miterlimit="10"/>
<path d="M23.2907 150.823L51.4767 150.823C51.6969 150.823 51.8663 150.993 51.8663 151.213L51.8663 233.063C51.8663 233.063 49.7658 261.628 82.4913 261.628L23.3077 261.628L23.3077 150.823L23.2907 150.823Z" stroke="#DBDBDB" stroke-width="4" stroke-miterlimit="10"/>
<path d="M185.377 -45.779L156.818 -45.779L156.818 65.0259L185.377 65.0259L185.377 -45.779Z" stroke="#DBDBDB" stroke-width="4" stroke-miterlimit="10"/>
<path d="M185.377 65.0261L156.818 65.0261L156.818 -17.2134C156.818 -17.2134 158.919 -45.7788 126.193 -45.7788L185.377 -45.7788L185.377 65.0261V65.0261Z" stroke="#DBDBDB" stroke-width="4" stroke-miterlimit="10"/>
<path d="M-17.9423 146.404L10.3804 146.404L10.3804 118.118L-17.9423 118.118L-17.9423 146.404Z" stroke="#DBDBDB" stroke-width="4" stroke-miterlimit="10"/>
<path d="M38.2464 83.1408L112.776 83.1408C117.378 83.1408 121.1 86.8581 121.1 91.4542L121.1 111.63L10.4483 111.63" stroke="#DBDBDB" stroke-width="4" stroke-miterlimit="10"/>
<path d="M10.4484 111.63L10.4484 1.1209L30.6498 1.1209C35.2518 1.1209 38.9741 4.8386 38.9741 9.43469L38.9741 85.1515" stroke="#DBDBDB" stroke-width="4" stroke-miterlimit="10"/>
<path d="M10.4481 1.12086L38.6016 1.12086C38.8216 1.12086 38.9908 1.2898 38.9908 1.50947L38.9908 83.1408C38.9908 83.1408 36.8927 111.63 69.5806 111.63L10.4651 111.63L10.465 1.12086L10.4481 1.12086Z" stroke="#DBDBDB" stroke-width="4" stroke-miterlimit="10"/>
</g>
<defs>
<clipPath id="clip0_228_365">
<rect width="308.356" height="318.447" fill="white" transform="translate(0 308.356) rotate(-90)"/>
</clipPath>
</defs>
</svg>
