<svg width="193" height="52" viewBox="0 0 193 52" fill="none" xmlns="http://www.w3.org/2000/svg">
<path d="M33.4833 31.1669V39.4896L42.2537 30.5673C42.5355 30.2806 42.9221 30.1185 43.3254 30.1185H44.2953V44.8912H41.104V35.5207L31.8822 44.8912H30.2812V30.1185H32.4292C33.0114 30.1185 33.4833 30.5879 33.4833 31.1669Z" fill="#2F2E43"/>
<path d="M60.3368 30.1083V44.8912H57.1486C57.141 44.8912 57.1344 44.885 57.1344 44.8774V38.2423H50.2714V44.8912H47.0801V30.1083H50.2714V35.3864H57.1344V31.5574C57.1344 30.7571 57.7872 30.1083 58.5919 30.1083H60.3368Z" fill="#2F2E43"/>
<path d="M70.5609 42.0978C71.4896 42.0978 72.4822 41.5204 72.4822 40.3969C72.4822 39.3553 71.5749 38.706 70.5717 38.706H66.377V42.0978H70.5609ZM66.377 32.8713V36.108H69.5683C70.401 36.0258 71.2546 35.4588 71.2546 34.4896C71.2546 33.4899 70.3476 32.8713 69.3444 32.8713H66.377ZM73.2183 36.9123C74.5639 37.6441 75.6095 38.8401 75.6095 40.4585C75.6095 43.1388 73.6027 44.8912 70.9668 44.8912H63.1857V30.1185H69.5364C72.1085 30.1185 74.1685 31.8509 74.1685 34.5411C74.1685 35.4073 73.8161 36.2008 73.2183 36.9123Z" fill="#2F2E43"/>
<path d="M88.6301 30.1083V31.5206C88.6301 32.3122 87.9849 32.9535 87.1891 32.9535H81.0625V35.3864H86.6983V38.2318H81.0625V42.0461H87.1359C87.9609 42.0461 88.6301 42.7112 88.6301 43.5321V44.8912H77.8609V30.1083H88.6301Z" fill="#2F2E43"/>
<path d="M105.291 39.706C104.372 42.8088 101.363 44.8912 97.8621 44.8912C93.6032 44.8912 90.0601 41.7265 90.0601 37.4999C90.0601 33.3559 93.4431 30.0982 97.8621 30.0982C101.246 30.0982 104.298 32.0364 105.291 35.2936L102.249 36.1906C101.705 34.2628 99.9963 32.8919 97.8621 32.8919C95.2044 32.8919 93.379 34.9019 93.379 37.4999C93.379 39.9842 95.1615 42.0978 97.8621 42.0978C100.007 42.0978 101.662 40.8191 102.249 38.7988L105.291 39.706Z" fill="#2F2E43"/>
<path d="M119.88 30.0982V32.9535H114.842V44.8912H111.641V32.9535H108.221C107.334 32.9535 106.613 32.2378 106.613 31.3552V30.0982H119.88Z" fill="#2F2E43"/>
<path d="M135.111 30.0982V44.8912H131.908V32.9535H125.046V44.8912H121.843V30.0982H135.111Z" fill="#59B0E0"/>
<path d="M152.518 30.1083V44.881H149.326V32.9535H144.609V40.0564C144.609 41.3968 144.118 42.541 143.147 43.4793C142.175 44.4173 140.991 44.8912 139.614 44.8912C138.749 44.8912 137.927 44.6854 137.17 44.2728L138.728 41.5823C138.995 41.7265 139.294 41.7986 139.603 41.7986C140.104 41.7986 140.532 41.6233 140.884 41.2834C141.237 40.9429 141.418 40.5306 141.418 40.0462V30.1083H152.518Z" fill="#59B0E0"/>
<path d="M163.821 37.4894C163.821 39.9121 165.454 42.0978 168.228 42.0978C170.79 42.0978 172.636 40.0668 172.636 37.4894C172.636 35.0668 170.993 32.8919 168.228 32.8919C165.677 32.8919 163.821 34.9124 163.821 37.4894ZM175.903 37.4894C175.903 41.6131 172.562 44.8912 168.228 44.8912C164.525 44.8912 161.568 42.6029 160.682 38.9226H158.505V44.8912H155.303V30.0982H158.505V36.0772H160.682C161.419 32.5516 164.429 30.0982 168.228 30.0982C172.487 30.0982 175.903 33.294 175.903 37.4894Z" fill="#59B0E0"/>
<path d="M193 39.706C192.082 42.8088 189.072 44.8912 185.572 44.8912C181.313 44.8912 177.77 41.7265 177.77 37.4999C177.77 33.3559 181.152 30.0982 185.572 30.0982C188.954 30.0982 192.008 32.0364 193 35.2936L189.958 36.1906C189.414 34.2628 187.706 32.8919 185.572 32.8919C182.914 32.8919 181.088 34.9019 181.088 37.4999C181.088 39.9842 182.872 42.0978 185.572 42.0978C187.717 42.0978 189.371 40.8191 189.958 38.7988L193 39.706Z" fill="#59B0E0"/>
<path d="M27.6789 28.8129H22.0416V23.2077H27.6789V28.8129Z" fill="#59B0E0"/>
<path d="M27.7552 21.9018V16.2545H44.1036C47.2408 16.2545 49.7842 18.7829 49.7842 21.9018H27.7552Z" fill="#31324E"/>
<path d="M27.7552 1.90735e-06C30.8924 1.90735e-06 33.4355 2.52873 33.4355 5.64733V21.9018H27.7552V1.90735e-06Z" fill="#2F2E43"/>
<path d="M27.7552 1.90735e-06H33.4355V16.2545C33.4355 16.2545 33.0188 21.9018 39.5254 21.9018H27.7552V1.90735e-06Z" fill="#2F2E43"/>
<path d="M22.029 30.0982V35.7455H4.74087C2.12269 35.7455 0 33.635 0 31.0319V30.0982H22.029Z" fill="#31324E"/>
<path d="M22.029 52C18.8918 52 16.3487 49.4713 16.3487 46.3527V30.0982H22.029V52Z" fill="#2F2E43"/>
<path d="M22.029 52H16.4255C16.3831 52 16.3487 51.9661 16.3487 51.9236V35.7455C16.3487 35.7455 16.7654 30.0982 10.2588 30.0982H22.029V52Z" fill="#2F2E43"/>
</svg>
