<svg width="101" height="39" viewBox="0 0 101 39" fill="none" xmlns="http://www.w3.org/2000/svg">
<path d="M0 9.30103V0.0106888H6.72368V1.80005H2.00625V9.30103H0Z" fill="#224C62"/>
<path d="M12.7058 0.0287819C14.3145 0.0287819 15.5979 1.1131 15.5979 2.81211C15.5979 4.3846 14.3506 5.55948 12.7058 5.55948H9.83203V9.31913H7.84387V0.0468741H12.7058V0.0287819ZM12.4527 3.8063C13.0311 3.8063 13.6457 3.4628 13.6457 2.81211C13.6457 2.16143 13.0673 1.81814 12.4527 1.81814H9.83203V3.8063H12.4527Z" fill="#224C62"/>
<path d="M18.5809 7.36693C18.9967 7.36693 19.322 7.18616 19.9003 6.21013V6.15608L16.4845 0.0106888H18.6352L21.0031 4.24007L23.3707 0.0106888H25.5217L21.7621 6.73437C21.0933 7.94536 20.2438 9.30103 18.599 9.30103C18.0568 9.30103 17.5508 9.17436 17.0808 8.92132L18.0569 7.22241C18.2377 7.31279 18.4183 7.36693 18.599 7.36693H18.5809Z" fill="#224C62"/>
<path d="M34.938 0.0106888V9.30103H32.9318V1.80005H28.6481V9.30103H26.6419V0.0106888H34.9199H34.938Z" fill="#224C62"/>
<path d="M44.9514 0.0106888V9.30103H42.945V1.80005H38.6613V9.30103H36.655V0.0106888H44.9333H44.9514Z" fill="#224C62"/>
<path d="M51.9467 0.0287819L55.7242 9.31913H53.7542L53.1757 7.90926H48.7113L48.133 9.31913H46.1627L49.9583 0.0287819H51.9286H51.9467ZM49.4343 6.15608H52.4707L50.9525 2.45071L49.4343 6.15608Z" fill="#224C62"/>
<path d="M4.86195 15.0641C6.47058 15.0641 7.75383 16.1484 7.75383 17.8474C7.75383 19.4199 6.50673 20.5948 4.86195 20.5948H1.98816V24.3545H0V15.0822H4.86195V15.0641ZM4.60888 18.8416C5.18726 18.8416 5.80186 18.4981 5.80186 17.8474C5.80186 17.1968 5.22341 16.8535 4.60888 16.8535H1.98816V18.8416H4.60888Z" fill="#224C62"/>
<path d="M13.4469 15.0641C16.3569 15.0641 18.3269 17.1968 18.3269 19.7092C18.3269 22.4565 16.1219 24.3545 13.4469 24.3545C10.5549 24.3545 8.56683 22.2577 8.56683 19.7092C8.56683 17.1607 10.7176 15.0641 13.4469 15.0641ZM13.4469 22.6011C15.2182 22.6011 16.2485 21.2817 16.2485 19.7092C16.2485 17.9921 15.0374 16.8173 13.4469 16.8173C11.6756 16.8173 10.6452 18.1367 10.6452 19.7092C10.6452 21.2817 11.7479 22.6011 13.4469 22.6011Z" fill="#224C62"/>
<path d="M28.9372 21.0829C28.3588 23.0349 26.4791 24.3364 24.2921 24.3364C21.6351 24.3364 19.4121 22.348 19.4121 19.6911C19.4121 17.0341 21.5267 15.046 24.2921 15.046C26.4068 15.046 28.3046 16.2569 28.9372 18.3174L27.0395 18.8778C26.6961 17.6668 25.6296 16.7992 24.2921 16.7992C22.6292 16.7992 21.4905 18.0644 21.4905 19.6911C21.4905 21.3178 22.6112 22.583 24.2921 22.583C25.6296 22.583 26.6599 21.7879 27.0395 20.5046L28.9372 21.0829Z" fill="#224C62"/>
<path d="M39.4567 21.0829C38.8783 23.0349 36.9984 24.3364 34.8114 24.3364C32.1544 24.3364 29.9314 22.348 29.9314 19.6911C29.9314 17.0341 32.046 15.046 34.8114 15.046C36.9261 15.046 38.8241 16.2569 39.4567 18.3174L37.5588 18.8778C37.2153 17.6668 36.1489 16.7992 34.8114 16.7992C33.1485 16.7992 32.01 18.0644 32.01 19.6911C32.01 21.3178 33.1305 22.583 34.8114 22.583C36.1489 22.583 37.1792 21.7879 37.5588 20.5046L39.4567 21.0829Z" fill="#224C62"/>
<path d="M42.8008 15.0641V20.9564L48.5486 15.0641H49.5426V24.3364H47.5544V18.444L41.7887 24.3364H40.7945V15.0641H42.8008Z" fill="#224C62"/>
<path d="M59.7 15.046V24.3364H57.7119V18.444L51.9462 24.3364H50.952V15.046H52.9583V20.9383L58.7242 15.046H59.7181H59.7ZM57.6395 13.4555L55.5068 15.6424L54.1693 14.4135L56.302 12.2263L57.6395 13.4555Z" fill="#224C62"/>
<path d="M70.4187 21.0829C69.8403 23.0349 67.9604 24.3364 65.7734 24.3364C63.1164 24.3364 60.8933 22.348 60.8933 19.6911C60.8933 17.0341 63.008 15.046 65.7734 15.046C67.8881 15.046 69.7861 16.2569 70.4187 18.3174L68.5207 18.8778C68.1773 17.6668 67.1109 16.7992 65.7734 16.7992C64.1105 16.7992 62.972 18.0644 62.972 19.6911C62.972 21.3178 64.0924 22.583 65.7734 22.583C67.1109 22.583 68.1412 21.7879 68.5207 20.5046L70.4187 21.0829Z" fill="#224C62"/>
<path d="M79.0578 15.046L75.5874 19.0947L79.7987 24.3364H77.4129L73.7618 19.7273V24.3364H71.7556V15.046H73.7618V18.5705L76.7261 15.046H79.0578Z" fill="#224C62"/>
<path d="M83.1608 15.0641V20.9564L88.9086 15.0641H89.9028V24.3364H87.9144V18.444L82.1487 24.3364H81.1545V15.0641H83.1608Z" fill="#224C62"/>
<path d="M100.621 15.046L97.3672 19.438L101 24.3545H98.6504L96.1923 21.0286L93.7342 24.3545H91.4025L95.0355 19.438L91.782 15.046H94.1318L96.2104 17.8474L98.2888 15.046H100.621Z" fill="#224C62"/>
<path d="M2.00625 29.0486V34.9409L7.75405 29.0486H8.74802V38.3208H6.75986V32.4285L0.994188 38.3208H0V29.0486H2.00625Z" fill="#224C62"/>
<path d="M18.7794 29.0486V38.3389H16.7732V34.1636H12.4895V38.3389H10.5012V29.0486H12.4895V32.3561H16.7732V29.0486H18.7794Z" fill="#224C62"/>
<path d="M26.8234 33.3141C27.6549 33.766 28.3238 34.5251 28.3238 35.5373C28.3238 37.2182 27.0764 38.3208 25.4317 38.3208H20.5697V29.0486H24.5279C26.1366 29.0486 27.42 30.1329 27.42 31.8319C27.42 32.3741 27.203 32.8803 26.8234 33.3141ZM22.5579 30.7837V32.8261H24.546C25.0702 32.7719 25.5945 32.4103 25.5945 31.8138C25.5945 31.2174 25.0341 30.8018 24.4015 30.8018H22.5398L22.5579 30.7837ZM25.1788 36.5855C25.7572 36.5855 26.3716 36.2241 26.3716 35.5192C26.3716 34.8685 25.8114 34.4528 25.1788 34.4528H22.5579V36.5855H25.1788Z" fill="#224C62"/>
<path d="M36.4384 29.0486V30.8379H31.721V32.3742H35.2454V34.1636H31.721V36.5674H36.4384V38.3568H29.7145V29.0667H36.4384V29.0486Z" fill="#224C62"/>
<path d="M46.8498 35.0673C46.2714 37.0194 44.3915 38.3208 42.2045 38.3208C39.5475 38.3208 37.3245 36.3325 37.3245 33.6755C37.3245 31.0186 39.4391 29.0305 42.2045 29.0305C44.3192 29.0305 46.2172 30.2414 46.8498 32.3019L44.9519 32.8623C44.6085 31.6513 43.542 30.7837 42.2045 30.7837C40.5416 30.7837 39.4031 32.0488 39.4031 33.6755C39.4031 35.3022 40.5236 36.5674 42.2045 36.5674C43.542 36.5674 44.5723 35.7723 44.9519 34.489L46.8498 35.0673Z" fill="#224C62"/>
<path d="M55.9584 29.0305V30.8198H52.8135V38.3208H50.8072V30.8198H47.6623V29.0305H55.9403H55.9584Z" fill="#224C62"/>
<path d="M61.7429 29.0486C64.6529 29.0486 66.6229 31.1813 66.6229 33.6936C66.6229 36.441 64.4179 38.3389 61.7429 38.3389C58.8509 38.3389 56.8626 36.2421 56.8626 33.6936C56.8626 31.1451 59.0136 29.0486 61.7429 29.0486ZM61.7429 36.5855C63.5142 36.5855 64.5443 35.2661 64.5443 33.6936C64.5443 31.9766 63.3334 30.8018 61.7429 30.8018C59.9716 30.8018 58.9412 32.1211 58.9412 33.6936C58.9412 35.2661 60.0439 36.5855 61.7429 36.5855Z" fill="#224C62"/>
<path d="M72.8953 29.0486C74.5039 29.0486 75.7874 30.1329 75.7874 31.8319C75.7874 33.4044 74.5401 34.5793 72.8953 34.5793H70.0215V38.3389H68.0334V29.0667H72.8953V29.0486ZM72.6422 32.8261C73.2206 32.8261 73.8352 32.4826 73.8352 31.8319C73.8352 31.1812 73.2568 30.8379 72.6422 30.8379H70.0215V32.8261H72.6422Z" fill="#224C62"/>
<path d="M81.4985 29.0486C84.4085 29.0486 86.3788 31.1813 86.3788 33.6936C86.3788 36.441 84.1736 38.3389 81.4985 38.3389C78.6066 38.3389 76.6185 36.2421 76.6185 33.6936C76.6185 31.1451 78.7693 29.0486 81.4985 29.0486ZM81.4985 36.5855C83.2698 36.5855 84.3002 35.2661 84.3002 33.6936C84.3002 31.9766 83.0891 30.8018 81.4985 30.8018C79.7272 30.8018 78.6971 32.1211 78.6971 33.6936C78.6971 35.2661 79.7995 36.5855 81.4985 36.5855Z" fill="#224C62"/>
<path d="M94.0965 33.3141C94.9279 33.766 95.5968 34.5251 95.5968 35.5373C95.5968 37.2182 94.3497 38.3208 92.7049 38.3208H87.8427V29.0486H91.8012C93.4098 29.0486 94.6931 30.1329 94.6931 31.8319C94.6931 32.3741 94.476 32.8803 94.0965 33.3141ZM89.8309 30.7837V32.8261H91.8193C92.3434 32.7719 92.8675 32.4103 92.8675 31.8138C92.8675 31.2174 92.3071 30.8018 91.6745 30.8018H89.8128L89.8309 30.7837ZM92.4518 36.5855C93.0302 36.5855 93.6446 36.2241 93.6446 35.5192C93.6446 34.8685 93.0844 34.4528 92.4518 34.4528H89.8309V36.5855H92.4518Z" fill="#224C62"/>
</svg>
